<svg width="800" height="600" xmlns="http://www.w3.org/2000/svg">

 <g>
  <title>Layer 1</title>
  <g>
   <path fill="#ffffff" d="m355.81958,336.57397c-17.20001,6.89999 -33.30002,16.29999 -50.10001,24.60004c0.70001,4.59998 1.5,9.19995 2,13.79999c1.30002,12.20001 -2.89999,23.39996 -6.89999,34.49997c-3.5,9.50003 -7.69998,18.89999 -12.79999,27.60001c-10.5,18 -34.80002,31.39999 -59,23.79999c-8.60002,-2.69995 -13.10002,-9.19995 -15.30002,-17.59998c-4.5,-17.29999 -6.19998,-34.70001 -3.09999,-52.70001c-8.39999,-1.89996 -14.8,-1 -22,4.89999c-15.5,12.70004 -32.40001,23.70004 -48.8,35.50003c-10.2,7.29999 -22.2,10.20001 -33.8,14.20001c-7.39999,2.5 -14.39999,4.19995 -21.7,1.09998c-3.39999,-1.40002 -6.39999,-3.80002 -11,-6.59998c5.8,-3.90002 10.1,-7.20004 14.7,-9.90002c2.60001,-1.5 3.70001,-3.09998 3.90001,-6.20001c0.89999,-16.20001 -0.8,-32.20001 -3.50001,-48.20001c-2.3,-13.39996 -4.6,-26.89999 -7,-40.29999c-1.8,-9.60001 -3.9,-11.70001 -13.69999,-11.09998c-8.40001,0.49997 -16.70001,2.29999 -25.00001,3.49997c-1.8,0.30002 -3.6,0.80002 -5.4,1.10001c-3.3,0.60004 -6.1,0.10004 -6.9,-3.79999c-0.7,-3.79999 -0.1,-7 4.1,-8.5c2.5,-0.90002 5.1,-1.59998 7.6,-2.29999c36.39999,-9.79999 59.29999,-32.79999 67.2,-69.90001c3.09998,-14.3 5.39999,-28.70001 8.09998,-43.09999c0.10001,-0.70001 0.40002,-1.3 0.30001,-2c-1.59999,-11.5 4.10001,-20.3 10,-29.40001c7.60001,-11.7 14.3,-24 21.5,-36c2.10001,-3.5 4.8,-8.1 9.5,-6.4c5.3,1.9 2.90001,7.00001 2.10001,10.9c-0.7,3.40001 -2,6.7 -3,10c-5.60001,17 -11.10001,34 -17,51.90001c9,-2.10001 16.39999,-4.10001 24,-5.70001c3.39999,-0.7 6.89999,-1.2 10.39999,-1.09999c7.3,0.09999 13.3,2.39999 17.8,9.09999c11.89999,17.90001 11.3,37 -3.8,52.40001c-14.2,14.50002 -29.39999,28.00002 -44.2,41.89998c-1.2,1.10004 -2.39999,2.20001 -4.60001,4.10004c7.10001,1.09998 13.10001,2 19,2.79996c16.3,2.10001 31.5,6.80002 44.8,16.80002c4.7,3.59998 10.3,2.79999 15.8,1c8.2,-2.70001 16.3,-5.80002 24.7,-7.5c17.89999,-3.59998 34.79999,-0.90002 49.89999,10c1.10001,0.79999 3.20001,1.09998 4.60001,0.69998c20.10001,-5.60001 39.20001,-13.89999 57.60001,-23.49997c15,-7.79999 28.39999,-17.90002 38.60001,-31.79999c7.09998,-9.80002 15.39999,-18.80002 22,-28.80002c4.19998,-6.3 6.59998,-13.8 9.29999,-20.89999c3.5,-9 9.20001,-15.70001 18.39999,-19.20001c6.30002,-2.39999 10.89999,-1.29999 12.5,3.8c0.80002,2.3 0.5,5.7 -0.69998,7.90001c-4.60001,8.2 -10.5,15.79999 -14.70001,24.2c-16.89999,34.19997 -33.60001,68.50002 -49.70001,103.09999c-10.59998,22.59998 -20.39999,45.59998 -26.69998,69.90002c-0.5,1.69995 -0.30002,3.59998 -0.60001,6.29996c7.89999,-8.49997 14.60001,-16.49997 22,-23.79996c10.60001,-10.30005 21,-21.10004 32.79999,-29.90002c10.80002,-8.09998 23.30002,-14 35.40002,-20.20001c4.09998,-2.10001 9.29999,-2.59998 14.09998,-3c11.40002,-0.79999 19.40002,6 20.10001,17.40002c1.10001,20 0.5,40 -3.19998,59.70001c-1,5.19995 -1.70001,10.5 -1.90002,15.79996c-0.09998,1.70004 1.80002,3.39999 2.80002,5.10001c1.10001,-0.89996 2.39999,-1.70001 3.29999,-2.79999c12.00003,-14.59998 24.59998,-28.70001 40.79999,-38.59998c9.20001,-5.69998 19.09998,-10.10004 28.89996,-14.80002c14.70001,-7.10001 27.70001,-16.60001 39.30005,-28c3.09998,-3 6.39996,-3.89996 10.39996,-3.39999c3.40002,0.39999 5.20001,2.29999 5.79999,5.79999c0.90002,5.60001 1.80005,11.20001 3.30005,16.60001c0.89996,3.19998 3,6.10004 4.5,9.10004c0.69995,0.19998 1.29999,0.29996 2,0.49997c3.39996,-4.29999 7.89996,-8.09998 10.09998,-12.90002c7.79999,-16.89996 15.20001,-34 21.79999,-51.39996c7.29999,-19.10004 13.40002,-38.70001 20.10004,-58c0.79999,-2.20001 1.69995,-4.50002 3.19995,-6.20001c1.30005,-1.5 4.80005,-3.39999 5.20001,-3c1.79999,1.8 4,4.5 3.90002,6.60001c-0.29999,5.10001 -1.79999,10.10001 -3.10004,15.10001c-4.5,17 -5.19995,34.89996 -12.29999,51.39996c-9.29999,21.80002 -19.5,43 -32.89996,62.70001c-5.80005,8.60004 -10.20001,18 -10.10004,28.79999c0.20001,12.30002 5.90002,22.70001 12.40002,32.60004c1.09998,1.59998 2.59998,3 3.69995,4.59998c4.30005,6.10001 10.20001,8.20004 17.40002,6.79999c1.09998,-0.19995 2.29999,-0.69998 3.40002,-0.79999c2.09998,-0.09998 4.29999,0 6.39996,0.10001c-0.70001,2.30002 -0.70001,5.10004 -2.09998,6.69998c-9.20001,10.40005 -18.79999,13 -29.29999,2c-7.40002,-7.79999 -12.90002,-16.89996 -16.40002,-27.09998c-0.39996,-1.09998 -1.39996,-2 -2.20001,-2.90002c-1.19995,1.40005 -2.59998,2.70001 -3.39996,4.30002c-3.10004,5.80002 -5.20001,12.30002 -9,17.50003c-5.29999,7.29999 -12.29999,12.49997 -22,13.09998c-9,0.50003 -17.90002,1.70001 -26.90002,1.59998c-10.70001,-0.19998 -18.20001,-6.5 -24,-15c-9.29999,-13.59998 -5.89996,-11.59998 -21,-5.29999c-5.29999,2.20004 -9.69998,6.40002 -14.49997,9.60004c-6.89996,4.69995 -14.09998,8 -22.89999,5.89996c-12.89999,-3.09998 -21.29999,-14.59998 -18.60001,-27.59998c3.10001,-15 7.60001,-29.60004 10.80002,-44.60004c1.89999,-8.89996 2.39999,-18.09995 3.5,-27.09995c0.10001,-0.80002 0,-1.70004 -0.10001,-2.50003c-1.60001,-12 -6.20001,-14.90002 -17.70001,-11.20001c-12.69998,4.20001 -22.5,13 -32.19998,21.5c-12.89999,11.29999 -25,23.40002 -37.70001,35c-14.39999,13.20004 -25.39999,29 -36.10001,45.10001c-3.79999,5.80002 -10.19998,6 -13.09998,-0.30002c-1.70001,-3.59995 -2.5,-8.29999 -2.10001,-12.19995c2.29999,-18.39999 3.39999,-36.70001 -0.39999,-55.10004c-1.60001,-7.79999 0.09998,-15.20001 4,-22.20001c4.59998,-8.29999 9.19998,-16.59998 13.79999,-24.89996c0.70001,-1.30002 1.10001,-2.70001 1.60001,-4c-0.39999,-0.19998 -0.69998,-0.70001 -1,-1.10004zm-66.19998,46.60004c-0.79999,-3 -1.79999,-6.30005 -2.39999,-9.70004c-0.70001,-3.69998 -2.70001,-4.29996 -5.70001,-2.89999c-4.69998,2.20001 -9.29999,4.5 -14,6.5c-9.29999,3.90002 -18.69998,7.60004 -27.89999,11.60004c-1.29999,0.5 -2.39999,2.09998 -2.89999,3.39996c-2.8,7.60004 -2.3,15.39999 -0.30002,23.10004c1.80002,6.69995 3.80002,13.39996 6.70001,19.59998c1.10001,2.40002 5,4.40002 7.79999,4.70004c2.80002,0.29996 6.10001,-1.30002 8.80002,-2.80002c7.89999,-4.30005 12.89999,-11.5 17.5,-18.79999c6.59998,-10.30005 10.89999,-21.70001 12.39999,-34.70001zm274.29996,39.59998c12.09998,0.90002 20.09998,-3.70001 28.5,-6.70001c9.59998,-3.39996 15.5,-10.79999 19.59998,-19.5c3.5,-7.29999 1,-13.69995 -6.5,-16.69995c-3.69995,-1.50003 -8.09998,-2 -12.09998,-1.60004c-13.09998,1.60004 -24.5,8.10001 -35.70001,14.60004c-3.70001,2.09998 -7.39996,4.49997 -10.5,7.49997c-5.20001,5.10004 -4.79999,10.60001 0.10004,15.69998c5.39996,5.60004 12.5,5.80005 16.59998,6.70001zm-445.69997,-15.59998c3.19999,-2 5.89999,-2.80005 7.5,-4.70004c6.2,-6.89999 13,-13.60001 17.59999,-21.49997c4.90001,-8.29999 8.70001,-17.70001 10.70001,-27.20001c2,-9.59998 -0.5,-18 -13.5,-18.20001c-5.8,0 -11.70001,-0.5 -17.40001,-1.5c-4.2,-0.70001 -4.89999,1 -4.89999,4.5c0,15.10004 -0.10001,30.29999 -0.10001,45.40002c0.10001,7.29999 0.10001,14.39999 0.10001,23.20001z"/>
   <path fill="#ffffff" d="m716.71954,439.37399c-9.79999,-1.10001 -17.59998,-1.69995 -25.29999,-3c-12,-1.89996 -17.79999,-13.10001 -13.10004,-24.39999c4.70001,-11.29996 12.80005,-20 22.70001,-26.60001c7.70001,-5.10001 15.90002,-10.10001 24.60004,-13c7.09998,-2.39999 15.5,-3 23,-1.79996c14.89996,2.39996 23.19995,17.89999 20.79999,33.59998c-2.60004,17.5 -14.29999,25.59998 -29.29999,30.39996c-8,2.60004 -16.70001,3.5 -23.40002,4.80002z"/>
  </g>
 </g>
</svg>
