<?xml version="1.0" encoding="utf-8"?>
<!-- Generator: Adobe Illustrator 26.5.0, SVG Export Plug-In . SVG Version: 6.00 Build 0)  -->
<svg version="1.1" id="Слой_1" xmlns="http://www.w3.org/2000/svg" xmlns:xlink="http://www.w3.org/1999/xlink" x="0px" y="0px"
	 viewBox="0 0 841.9 595.3" style="enable-background:new 0 0 841.9 595.3;" xml:space="preserve">
<path d="M376.4,328.3c-17.2,6.9-33.3,16.3-50.1,24.6c0.7,4.6,1.5,9.2,2,13.8c1.3,12.2-2.9,23.4-6.9,34.5
	c-3.5,9.5-7.7,18.9-12.8,27.6c-10.5,18-34.8,31.4-59,23.8c-8.6-2.7-13.1-9.2-15.3-17.6c-4.5-17.3-6.2-34.7-3.1-52.7
	c-8.4-1.9-14.8-1-22,4.9c-15.5,12.7-32.4,23.7-48.8,35.5c-10.2,7.3-22.2,10.2-33.8,14.2c-7.4,2.5-14.4,4.2-21.7,1.1
	c-3.4-1.4-6.4-3.8-11-6.6c5.8-3.9,10.1-7.2,14.7-9.9c2.6-1.5,3.7-3.1,3.9-6.2c0.9-16.2-0.8-32.2-3.5-48.2c-2.3-13.4-4.6-26.9-7-40.3
	c-1.8-9.6-3.9-11.7-13.7-11.1c-8.4,0.5-16.7,2.3-25,3.5c-1.8,0.3-3.6,0.8-5.4,1.1c-3.3,0.6-6.1,0.1-6.9-3.8c-0.7-3.8-0.1-7,4.1-8.5
	c2.5-0.9,5.1-1.6,7.6-2.3c36.4-9.8,59.3-32.8,67.2-69.9c3.1-14.3,5.4-28.7,8.1-43.1c0.1-0.7,0.4-1.3,0.3-2
	c-1.6-11.5,4.1-20.3,10-29.4c7.6-11.7,14.3-24,21.5-36c2.1-3.5,4.8-8.1,9.5-6.4c5.3,1.9,2.9,7,2.1,10.9c-0.7,3.4-2,6.7-3,10
	c-5.6,17-11.1,34-17,51.9c9-2.1,16.4-4.1,24-5.7c3.4-0.7,6.9-1.2,10.4-1.1c7.3,0.1,13.3,2.4,17.8,9.1c11.9,17.9,11.3,37-3.8,52.4
	c-14.2,14.5-29.4,28-44.2,41.9c-1.2,1.1-2.4,2.2-4.6,4.1c7.1,1.1,13.1,2,19,2.8c16.3,2.1,31.5,6.8,44.8,16.8
	c4.7,3.6,10.3,2.8,15.8,1c8.2-2.7,16.3-5.8,24.7-7.5c17.9-3.6,34.8-0.9,49.9,10c1.1,0.8,3.2,1.1,4.6,0.7
	c20.1-5.6,39.2-13.9,57.6-23.5c15-7.8,28.4-17.9,38.6-31.8c7.1-9.8,15.4-18.8,22-28.8c4.2-6.3,6.6-13.8,9.3-20.9
	c3.5-9,9.2-15.7,18.4-19.2c6.3-2.4,10.9-1.3,12.5,3.8c0.8,2.3,0.5,5.7-0.7,7.9c-4.6,8.2-10.5,15.8-14.7,24.2
	c-16.9,34.2-33.6,68.5-49.7,103.1c-10.6,22.6-20.4,45.6-26.7,69.9c-0.5,1.7-0.3,3.6-0.6,6.3c7.9-8.5,14.6-16.5,22-23.8
	c10.6-10.3,21-21.1,32.8-29.9c10.8-8.1,23.3-14,35.4-20.2c4.1-2.1,9.3-2.6,14.1-3c11.4-0.8,19.4,6,20.1,17.4c1.1,20,0.5,40-3.2,59.7
	c-1,5.2-1.7,10.5-1.9,15.8c-0.1,1.7,1.8,3.4,2.8,5.1c1.1-0.9,2.4-1.7,3.3-2.8c12-14.6,24.6-28.7,40.8-38.6
	c9.2-5.7,19.1-10.1,28.9-14.8c14.7-7.1,27.7-16.6,39.3-28c3.1-3,6.4-3.9,10.4-3.4c3.4,0.4,5.2,2.3,5.8,5.8
	c0.9,5.6,1.8,11.2,3.3,16.6c0.9,3.2,3,6.1,4.5,9.1c0.7,0.2,1.3,0.3,2,0.5c3.4-4.3,7.9-8.1,10.1-12.9c7.8-16.9,15.2-34,21.8-51.4
	c7.3-19.1,13.4-38.7,20.1-58c0.8-2.2,1.7-4.5,3.2-6.2c1.3-1.5,4.8-3.4,5.2-3c1.8,1.8,4,4.5,3.9,6.6c-0.3,5.1-1.8,10.1-3.1,15.1
	c-4.5,17-5.2,34.9-12.3,51.4c-9.3,21.8-19.5,43-32.9,62.7c-5.8,8.6-10.2,18-10.1,28.8c0.2,12.3,5.9,22.7,12.4,32.6
	c1.1,1.6,2.6,3,3.7,4.6c4.3,6.1,10.2,8.2,17.4,6.8c1.1-0.2,2.3-0.7,3.4-0.8c2.1-0.1,4.3,0,6.4,0.1c-0.7,2.3-0.7,5.1-2.1,6.7
	c-9.2,10.4-18.8,13-29.3,2c-7.4-7.8-12.9-16.9-16.4-27.1c-0.4-1.1-1.4-2-2.2-2.9c-1.2,1.4-2.6,2.7-3.4,4.3c-3.1,5.8-5.2,12.3-9,17.5
	c-5.3,7.3-12.3,12.5-22,13.1c-9,0.5-17.9,1.7-26.9,1.6c-10.7-0.2-18.2-6.5-24-15c-9.3-13.6-5.9-11.6-21-5.3
	c-5.3,2.2-9.7,6.4-14.5,9.6c-6.9,4.7-14.1,8-22.9,5.9c-12.9-3.1-21.3-14.6-18.6-27.6c3.1-15,7.6-29.6,10.8-44.6
	c1.9-8.9,2.4-18.1,3.5-27.1c0.1-0.8,0-1.7-0.1-2.5c-1.6-12-6.2-14.9-17.7-11.2c-12.7,4.2-22.5,13-32.2,21.5
	c-12.9,11.3-25,23.4-37.7,35c-14.4,13.2-25.4,29-36.1,45.1c-3.8,5.8-10.2,6-13.1-0.3c-1.7-3.6-2.5-8.3-2.1-12.2
	c2.3-18.4,3.4-36.7-0.4-55.1c-1.6-7.8,0.1-15.2,4-22.2c4.6-8.3,9.2-16.6,13.8-24.9c0.7-1.3,1.1-2.7,1.6-4
	C377,329.2,376.7,328.7,376.4,328.3z M310.2,374.9c-0.8-3-1.8-6.3-2.4-9.7c-0.7-3.7-2.7-4.3-5.7-2.9c-4.7,2.2-9.3,4.5-14,6.5
	c-9.3,3.9-18.7,7.6-27.9,11.6c-1.3,0.5-2.4,2.1-2.9,3.4c-2.8,7.6-2.3,15.4-0.3,23.1c1.8,6.7,3.8,13.4,6.7,19.6
	c1.1,2.4,5,4.4,7.8,4.7c2.8,0.3,6.1-1.3,8.8-2.8c7.9-4.3,12.9-11.5,17.5-18.8C304.4,399.3,308.7,387.9,310.2,374.9z M584.5,414.5
	c12.1,0.9,20.1-3.7,28.5-6.7c9.6-3.4,15.5-10.8,19.6-19.5c3.5-7.3,1-13.7-6.5-16.7c-3.7-1.5-8.1-2-12.1-1.6
	c-13.1,1.6-24.5,8.1-35.7,14.6c-3.7,2.1-7.4,4.5-10.5,7.5c-5.2,5.1-4.8,10.6,0.1,15.7C573.3,413.4,580.4,413.6,584.5,414.5z
	 M138.8,398.9c3.2-2,5.9-2.8,7.5-4.7c6.2-6.9,13-13.6,17.6-21.5c4.9-8.3,8.7-17.7,10.7-27.2c2-9.6-0.5-18-13.5-18.2
	c-5.8,0-11.7-0.5-17.4-1.5c-4.2-0.7-4.9,1-4.9,4.5c0,15.1-0.1,30.3-0.1,45.4C138.8,383,138.8,390.1,138.8,398.9z"/>
<path d="M737.3,431.1c-9.8-1.1-17.6-1.7-25.3-3c-12-1.9-17.8-13.1-13.1-24.4c4.7-11.3,12.8-20,22.7-26.6c7.7-5.1,15.9-10.1,24.6-13
	c7.1-2.4,15.5-3,23-1.8c14.9,2.4,23.2,17.9,20.8,33.6c-2.6,17.5-14.3,25.6-29.3,30.4C752.7,428.9,744,429.8,737.3,431.1z"/>
</svg>
